<?xml version="1.0" encoding="utf-8"?>
<!-- Generator: Adobe Illustrator 25.2.3, SVG Export Plug-In . SVG Version: 6.00 Build 0)  -->
<svg version="1.1" xmlns="http://www.w3.org/2000/svg" xmlns:xlink="http://www.w3.org/1999/xlink" x="0px" y="0px"
	 viewBox="0 0 500 500" style="enable-background:new 0 0 500 500;" xml:space="preserve">
<style type="text/css">
	.st0{fill:#EAF9F8;}
	.st1{fill:#E03C03;}
	.st2{fill:#FF6224;}
	.st3{fill:#FFC947;}
	.st4{fill:#20C3C5;}
	.st5{fill:#FFFFFF;}
	.st6{fill:#383873;}
	.st7{fill:#86BFBC;}
	.st8{fill:#B8E3E2;}
	.st9{fill:#9FCCC9;}
	.st10{opacity:0.15;fill:none;stroke:#000000;stroke-width:0.8185;stroke-linecap:round;stroke-miterlimit:10;}
	.st11{fill:#382424;}
	.st12{fill:#FFAD94;}
	.st13{opacity:0.25;}
	.st14{fill:#0C2059;}
	.st15{fill:#2E4780;}
	.st16{opacity:0.15;}
	.st17{fill:#169799;}
	.st18{fill:none;stroke:#000000;stroke-width:0.8185;stroke-linecap:round;stroke-miterlimit:10;}
	.st19{fill:none;stroke:#000000;stroke-width:0.8185;stroke-linecap:round;stroke-miterlimit:10;stroke-dasharray:4.1525,4.1525;}
	.st20{opacity:0.53;}
</style>
<g id="BACKGROUND">
</g>
<g id="OBJECTS">
	<g>
		<path class="st0" d="M421.23,235.88c-23.34,34.95-73.16,143.04-60.9,183.15l-178.71,0.04c0,0-25.82-19.23-50.91-52.65
			c-4.56-6.07-9.09-12.62-13.44-19.6c-4.62-7.4-9.02-15.29-13.02-23.64c-11.63-24.21-19.93-52.27-20.27-83.28
			C82.81,132.55,175.73,32.77,302.12,73.03C428.52,113.29,444.56,200.93,421.23,235.88z"/>
		<g>
			<g>
				<path class="st1" d="M309.42,420.29c-0.36,0-0.71-0.16-0.96-0.46l-95.3-118.49c-0.42-0.53-0.34-1.3,0.19-1.73
					c0.53-0.42,1.3-0.34,1.73,0.19l95.3,118.49c0.43,0.53,0.34,1.3-0.19,1.73C309.96,420.21,309.69,420.29,309.42,420.29z"/>
			</g>
			<g>
				<path class="st2" d="M161.58,420.29c-0.27,0-0.54-0.09-0.77-0.27c-0.53-0.43-0.61-1.2-0.19-1.73l95.3-118.49
					c0.43-0.53,1.2-0.61,1.73-0.19c0.53,0.43,0.61,1.2,0.19,1.73l-95.3,118.49C162.3,420.14,161.94,420.29,161.58,420.29z"/>
			</g>
			<g>
				<path class="st2" d="M256.89,420.29c-0.36,0-0.71-0.16-0.96-0.46l-95.3-118.49c-0.42-0.53-0.34-1.3,0.19-1.73
					c0.53-0.42,1.3-0.34,1.73,0.19l95.3,118.49c0.43,0.53,0.34,1.3-0.19,1.73C257.43,420.21,257.16,420.29,256.89,420.29z"/>
			</g>
			<path class="st1" d="M178.47,303.72H134.2c-1.74,0-3.15-1.41-3.15-3.15l0,0c0-1.74,1.41-3.15,3.15-3.15h44.28
				c1.74,0,3.15,1.41,3.15,3.15l0,0C181.62,302.31,180.21,303.72,178.47,303.72z"/>
			<path class="st2" d="M305.86,303.72H179.32c-1.74,0-3.15-1.41-3.15-3.15l0,0c0-1.74,1.41-3.15,3.15-3.15h126.55V303.72z"/>
			<g>
				<path class="st1" d="M212.67,359.82c0,1.9-1.54,3.44-3.44,3.44c-1.9,0-3.44-1.54-3.44-3.44c0-1.9,1.54-3.44,3.44-3.44
					C211.13,356.38,212.67,357.92,212.67,359.82z"/>
			</g>
			<path class="st3" d="M265.2,359.82c0,1.9-1.54,3.44-3.44,3.44c-1.9,0-3.44-1.54-3.44-3.44c0-1.9,1.54-3.44,3.44-3.44
				C263.66,356.38,265.2,357.92,265.2,359.82z"/>
		</g>
		<g>
			<path class="st4" d="M219.48,203.51h-44.61c-2.2,0-3.99-1.79-3.99-3.99v-33.17c0-2.2,1.79-3.99,3.99-3.99h44.61
				c2.2,0,3.99,1.79,3.99,3.99v33.17C223.47,201.72,221.68,203.51,219.48,203.51z"/>
			<path class="st5" d="M208.59,180.53h-1.65c-0.25-0.9-0.63-1.76-1.11-2.54l1.27-1.27c0.49-0.49,0.49-1.27,0-1.76l-1.79-1.79
				c-0.49-0.49-1.27-0.49-1.76,0l-1.35,1.35c-0.75-0.42-1.55-0.75-2.4-0.97v-2.03c0-0.69-0.56-1.24-1.24-1.24h-2.54
				c-0.69,0-1.24,0.56-1.24,1.24v2.05c-0.82,0.21-1.6,0.52-2.33,0.92l-1.49-1.49c-0.49-0.49-1.27-0.49-1.76,0l-1.79,1.79
				c-0.49,0.49-0.49,1.27,0,1.76l1.38,1.38c-0.46,0.73-0.82,1.53-1.08,2.37h-1.94c-0.69,0-1.24,0.56-1.24,1.24v2.54
				c0,0.69,0.56,1.24,1.24,1.24h1.7c0.19,0.94,0.51,1.83,0.95,2.66l-1.16,1.16c-0.49,0.49-0.49,1.27,0,1.76l1.79,1.79
				c0.49,0.49,1.27,0.49,1.76,0l1.01-1.01c0.84,0.55,1.76,0.97,2.74,1.24v1.41c0,0.69,0.56,1.24,1.24,1.24h2.54
				c0.69,0,1.24-0.56,1.24-1.24v-1.31c1.02-0.24,1.97-0.63,2.84-1.15l0.97,0.97c0.49,0.49,1.27,0.49,1.76,0l1.79-1.79
				c0.49-0.49,0.49-1.27,0-1.76l-0.99-0.99c0.49-0.85,0.86-1.77,1.09-2.76h1.54c0.69,0,1.24-0.56,1.24-1.24v-2.54
				C209.83,181.09,209.27,180.53,208.59,180.53z M198.53,189.55c-4.5,0.85-8.37-3.02-7.52-7.52c0.48-2.52,2.5-4.54,5.02-5.02
				c4.5-0.85,8.37,3.02,7.52,7.52C203.08,187.04,201.05,189.07,198.53,189.55z"/>
		</g>
		<g>
			<path class="st2" d="M286.64,180.78h-44.61c-2.2,0-3.99-1.79-3.99-3.99v-33.17c0-2.2,1.79-3.99,3.99-3.99h44.61
				c2.2,0,3.99,1.79,3.99,3.99v33.17C290.62,178.99,288.84,180.78,286.64,180.78z"/>
			<g>
				<g>
					<g>
						<path class="st5" d="M255.45,167.12c-0.31,0-0.63-0.13-0.87-0.38l-5.54-5.93c-0.48-0.51-0.48-1.35,0-1.86l5.64-6.03
							c0.48-0.51,1.26-0.51,1.74,0c0.48,0.51,0.48,1.34,0,1.86l-4.77,5.1l4.67,5c0.48,0.51,0.48,1.34,0,1.86
							C256.08,166.99,255.77,167.12,255.45,167.12z"/>
					</g>
					<g>
						<path class="st5" d="M273.21,167.12c-0.31,0-0.63-0.13-0.87-0.38c-0.48-0.51-0.48-1.35,0-1.86l4.68-5l-4.77-5.1
							c-0.48-0.51-0.48-1.34,0-1.86c0.48-0.51,1.26-0.51,1.74,0l5.64,6.03c0.23,0.25,0.36,0.58,0.36,0.93
							c0,0.35-0.13,0.68-0.36,0.93l-5.54,5.93C273.84,166.99,273.52,167.12,273.21,167.12z"/>
					</g>
				</g>
				<g>
					<path class="st5" d="M261.58,168.75c-0.15,0-0.31-0.03-0.46-0.1c-0.63-0.27-0.93-1.04-0.67-1.71l5.5-14.46
						c0.26-0.67,0.97-1,1.6-0.72c0.63,0.27,0.93,1.04,0.67,1.71l-5.5,14.46C262.52,168.44,262.07,168.75,261.58,168.75z"/>
				</g>
			</g>
		</g>
		<g>
			<g>
				<path class="st5" d="M326.9,188.69H216.22v-3.4c0-0.92,0.74-1.66,1.66-1.66h107.36c0.92,0,1.66,0.74,1.66,1.66V188.69z"/>
				<path class="st6" d="M323.81,247.69h-104.5c-1.71,0-3.09-1.38-3.09-3.09v-55.92H326.9v55.92
					C326.9,246.31,325.52,247.69,323.81,247.69z"/>
				<g>
					<g>
						<path class="st2" d="M321.59,186.16c0,0.43-0.35,0.78-0.78,0.78c-0.43,0-0.78-0.35-0.78-0.78c0-0.43,0.35-0.78,0.78-0.78
							C321.24,185.38,321.59,185.73,321.59,186.16z"/>
						<path class="st2" d="M316.24,186.16c0,0.43-0.35,0.78-0.78,0.78c-0.43,0-0.78-0.35-0.78-0.78c0-0.43,0.35-0.78,0.78-0.78
							C315.89,185.38,316.24,185.73,316.24,186.16z"/>
						<path class="st2" d="M310.89,186.16c0,0.43-0.35,0.78-0.78,0.78c-0.43,0-0.78-0.35-0.78-0.78c0-0.43,0.35-0.78,0.78-0.78
							C310.54,185.38,310.89,185.73,310.89,186.16z"/>
					</g>
				</g>
				<path class="st4" d="M283.42,196.66h-61.46c-0.59,0-1.07-0.48-1.07-1.07l0,0c0-0.59,0.48-1.07,1.07-1.07h61.46
					c0.59,0,1.07,0.48,1.07,1.07l0,0C284.49,196.18,284.01,196.66,283.42,196.66z"/>
				<path class="st4" d="M283.42,203.47h-61.46c-0.59,0-1.07-0.48-1.07-1.07l0,0c0-0.59,0.48-1.07,1.07-1.07h61.46
					c0.59,0,1.07,0.48,1.07,1.07l0,0C284.49,202.99,284.01,203.47,283.42,203.47z"/>
				<path class="st4" d="M254.1,210.27h-32.14c-0.59,0-1.07-0.48-1.07-1.07l0,0c0-0.59,0.48-1.07,1.07-1.07h32.14
					c0.59,0,1.07,0.48,1.07,1.07l0,0C255.17,209.79,254.69,210.27,254.1,210.27z"/>
				<path class="st2" d="M283.42,223.89h-61.46c-0.59,0-1.07-0.48-1.07-1.07l0,0c0-0.59,0.48-1.07,1.07-1.07h61.46
					c0.59,0,1.07,0.48,1.07,1.07l0,0C284.49,223.41,284.01,223.89,283.42,223.89z"/>
				<path class="st2" d="M254.1,230.7h-32.14c-0.59,0-1.07-0.48-1.07-1.07l0,0c0-0.59,0.48-1.07,1.07-1.07h32.14
					c0.59,0,1.07,0.48,1.07,1.07l0,0C255.17,230.22,254.69,230.7,254.1,230.7z"/>
				<path class="st4" d="M254.1,237.5h-32.14c-0.59,0-1.07-0.48-1.07-1.07l0,0c0-0.59,0.48-1.07,1.07-1.07h32.14
					c0.59,0,1.07,0.48,1.07,1.07l0,0C255.17,237.02,254.69,237.5,254.1,237.5z"/>
				<path class="st5" d="M283.42,210.27h-23.1c-0.59,0-1.07-0.48-1.07-1.07l0,0c0-0.59,0.48-1.07,1.07-1.07h23.1
					c0.59,0,1.07,0.48,1.07,1.07l0,0C284.49,209.79,284.01,210.27,283.42,210.27z"/>
				<path class="st2" d="M313.93,194.99l-16.33,16.33c-0.42,0.42-1.1,0.42-1.51,0l0,0c-0.42-0.42-0.42-1.1,0-1.51l16.33-16.33
					c0.42-0.42,1.1-0.42,1.51,0l0,0C314.35,193.89,314.35,194.57,313.93,194.99z"/>
				
					<ellipse transform="matrix(0.2307 -0.973 0.973 0.2307 14.8511 470.5475)" class="st2" cx="305.01" cy="225.88" rx="9.63" ry="9.63"/>
				<path class="st4" d="M303.75,232.59c0,3.01-2.44,5.45-5.45,5.45c-3.01,0-5.45-2.44-5.45-5.45c0-3.01,2.44-5.45,5.45-5.45
					C301.31,227.14,303.75,229.58,303.75,232.59z"/>
			</g>
			<polyline class="st6" points="216.22,241.72 216.22,261.19 234.12,243.3 			"/>
		</g>
		<g>
			<polygon class="st7" points="197.18,266.45 236.44,266.45 250.64,293.78 211.37,293.78 			"/>
			<path class="st5" d="M212.17,291.76l-11.76-22.63c-0.25-0.47,0.1-1.04,0.63-1.04h33.97c0.27,0,0.51,0.15,0.63,0.38l11.76,22.63
				c0.25,0.47-0.1,1.04-0.63,1.04H212.8C212.54,292.14,212.29,291.99,212.17,291.76z"/>
			<rect x="211.37" y="293.78" class="st8" width="31.8" height="3.65"/>
			<path class="st9" d="M270.49,293.78h-31.38c-1.01,0-1.82,0.82-1.82,1.82l0,0c0,1.01,0.82,1.82,1.82,1.82h31.38
				c1.01,0,1.82-0.82,1.82-1.82l0,0C272.32,294.6,271.5,293.78,270.49,293.78z"/>
			<path class="st8" d="M211.37,293.78l-14.2-27.33l-0.71,0.53c-0.46,0.34-0.6,0.97-0.33,1.48l15.24,28.96V293.78z"/>
			<rect x="222.17" y="295.48" class="st9" width="3.5" height="0.61"/>
			<rect x="226.57" y="295.48" class="st9" width="3.5" height="0.61"/>
			<rect x="230.97" y="295.48" class="st9" width="3.5" height="0.61"/>
		</g>
		<g>
			<path class="st6" d="M282.96,347.27c0,0-32.57,25.36-37.73,31.8c-1.95,2.44-5.34,6.71-8.86,11.09
				c-5.78,7.19-11.91,14.69-12.64,14.87c-1.16,0.29-10.93-7.15-11.23-8.75c-0.18-1,8.72-16.27,16.42-28.55
				c4.69-7.46,8.93-13.83,10.42-15.21c3.94-3.65,28.16-16.48,28.16-16.48L282.96,347.27z"/>
			<path class="st10" d="M220.81,399.61c0,0,30.43-43.31,45.7-50.6"/>
			<path class="st11" d="M316.9,236.07c-0.34,0.79-0.74,1.6-1.18,2.44c-2.38,4.55-0.62,9.11-3.34,10.27
				c-0.16,0.07-0.34,0.13-0.55,0.17c-3.5,0.78-11.57-3.89-11.93-6.22c-0.35-2.33,2.49-6.33,0-6.81c-2.49-0.48-3.83,3.7-3.83,3.7
				c-2.05,0.21-2.77-3.22-6.13-3.22c-0.47,0-0.94,0.07-1.39,0.18c-1.58,0.39-2.96,1.37-3.85,2.12c-0.65,0.55-1.03,0.98-1.03,0.98
				s-2.99-1.89-2.85-5.61c0.24-5.9,2.41-10.21,7.66-11.08c0.58-6.56,5.98-10.07,13.2-10.29c6.33-0.2,7.28,5.49,7.42,6.91
				c-0.06-1.06-0.35-4.53-1.86-6.91c3.17-0.14,5.96,2.12,5.23,9.49c0.73-2.19,3.28-3.58,5.25-1.97c-1.82,0-3.57,3.06-3.57,3.06
				s2.14,1.37,3.59,3.9C318.97,229.26,318.51,232.34,316.9,236.07z"/>
			<path class="st12" d="M312.38,248.78l-0.08,1.08l-0.28,3.83c0,0-5.83,4.98-9.13,0c-0.02-0.03-0.04-0.07-0.07-0.1
				c-1.02-1.52-1.95-2.05-2.79-2.15c-1.83-0.22-3.3,1.56-4.82-0.37c-4.35-5.52-6.09-11.93-6.65-14.49c0.45-0.11,0.92-0.18,1.39-0.18
				c3.36,0,4.08,3.43,6.13,3.22c0,0,1.34-4.18,3.83-3.7c2.49,0.48-0.35,4.48,0,6.81c0.16,1.04,1.85,2.55,3.99,3.82
				c2.5,1.5,5.61,2.68,7.58,2.46c0.12-0.02,0.24-0.03,0.35-0.06C312.04,248.91,312.22,248.84,312.38,248.78z"/>
			<path class="st13" d="M313.29,255.91c-2.63,1.79-7.44,2.09-7.44,2.09l-3.94-0.58c0,0-1.65-2.39-0.88-3.72
				c0.15-0.26,0.52-0.62,1.04-1.05c1.06-0.87,2.76-1.98,4.52-2.9c1.82-0.94,3.69-1.69,5.04-1.77
				C314.94,247.79,315.92,254.11,313.29,255.91z"/>
			<path class="st4" d="M312.51,319.75c-5.86,1.13-18.26-2.32-24.19-4.99c-1.75-0.79-2.95-1.51-3.23-2.01
				c-1.14-2.01,0.01-3.54,2.83-9.91c0.32-0.72,0.65-1.5,1.01-2.34c1.92-4.51,1.92-14.13,1.92-22.42c-0.02-7.1-0.06-13.22,1.07-14.31
				c2.45-2.36,14.66-10.08,14.66-10.08l2.43,12.67c0,0,1.38,6.43,2.82,14.83C314.5,296.65,317.43,318.8,312.51,319.75z"/>
			<path class="st6" d="M316.59,325.39c0,0.58-5.84,14.19-10.73,16.14c-4.89,1.95-34.39-0.2-34.39-0.2l-14.59,9.54l3.05,28.73
				l2.13,20.02l0.07,0.65c-4.46,2.91-15.7,3.7-16.91,1.19c-0.01-0.01-0.01-0.02-0.01-0.02c-1.17-2.53-19.06-56.4-12.06-65.74
				c7-9.33,51.92-22.95,51.92-22.95c1.17,0.74,2.53,1.42,4.01,2.01c4.99,2.05,11.34,3.33,16.17,4.08c1.86,0.29,3.49,0.5,4.73,0.65
				c1.57,0.19,2.52,0.26,2.52,0.26S316.59,324.8,316.59,325.39z"/>
			<path class="st14" d="M263.98,419.03h-37.93c-0.19-0.67,0.07-1.35,0.64-2.04c1.54-1.85,5.39-3.71,9.11-5.31
				c3.53-1.52,6.92-2.83,8.05-3.73c2.68-2.12,1.44-6.24,1.37-6.5c0.41,0.84,1.96,1.32,4,1.46c4.02,0.29,9.95-0.71,12.91-2.64
				l-0.07-0.65c1.13,2.16,1.66,12.84,1.84,17.38C263.96,418.24,263.98,419.03,263.98,419.03z"/>
			<path class="st15" d="M249.23,402.91c-0.11,1.81-0.38,4.74-0.9,5.52c-0.78,1.17-9.14,5.25-10.3,4.86
				c-0.75-0.25-1.67-1.06-2.22-1.61c3.53-1.52,6.92-2.83,8.05-3.73c2.68-2.12,1.44-6.24,1.37-6.5
				C245.63,402.29,247.18,402.77,249.23,402.91z"/>
			<path class="st15" d="M263.98,419.03h-37.93c-0.19-0.67,0.07-1.35,0.64-2.04h37.22C263.96,418.24,263.98,419.03,263.98,419.03z"
				/>
			<path class="st14" d="M223.72,405.03c0,0-2.88,7.6-5.38,11.61c-0.99,1.6-1.93,2.64-2.59,2.39c-2.33-0.88-25.77-20.81-23.53-22.26
				c0.33-0.21,0.85-0.36,1.51-0.44c2.04-0.26,5.42,0.02,8.54,0.34c2.68,0.28,5.18,0.58,6.48,0.58c3.31,0,3.74-0.97,3.74-0.97
				c0.07,0.38,0.7,1.11,1.62,2C217.01,401.02,222.84,405.25,223.72,405.03z"/>
			<path class="st15" d="M214.11,398.27c-4.97,3.29-10.15,1.31-11.17,0.56c-0.75-0.55-0.75-1.57-0.67-2.16
				c2.68,0.28,5.18,0.58,6.48,0.58c3.31,0,3.74-0.97,3.74-0.97C212.57,396.66,213.19,397.39,214.11,398.27z"/>
			<path class="st15" d="M218.34,416.64c-0.99,1.6-1.93,2.64-2.59,2.39c-2.33-0.88-25.77-20.81-23.53-22.26
				c0.33-0.21,0.85-0.36,1.51-0.44L218.34,416.64z"/>
			<path class="st12" d="M288.33,294.92c-1.83,2.55-5.12,6.45-7.82,6.06c-0.1-0.02-0.2-0.03-0.34-0.06
				c-5.16-0.91-35.48-8.51-36.91-8.8c-1.46-0.29-11.66-0.38-11.08-1.46c0.58-1.07,6.42-4.47,7.97-4.39
				c1.56,0.08,7.69,1.86,13.81,1.66c6.13-0.19,22.17,0,22.17,0l0.78-1.34l1.15-1.98C277.74,290.56,284.9,295.41,288.33,294.92z"/>
			<path class="st10" d="M288.33,317.07c0,0-1.4,7.44,4.05,9.92"/>
			<path class="st10" d="M285.47,323.05c0,0-36.02,15.36-37.75,20.13c-1.73,4.77,9.16,56.43,9.16,56.43"/>
			<path class="st16" d="M316.59,325.39c0,0.58-5.84,14.19-10.73,16.14c-4.89,1.95-34.39-0.2-34.39-0.2l-14.59,9.54l3.05,28.73
				c0,0-6.16-32.81-6.16-34.96c0-1.83,40.74-13.55,51.48-25.8c4.21,0.66,7.25,0.91,7.25,0.91S316.59,324.8,316.59,325.39z"/>
			<path class="st13" d="M297.39,290.57c-2.53,3.58-6.61,8.14-9.47,12.26c0.32-0.72,0.65-1.5,1.01-2.34
				c1.92-4.51,1.92-14.13,1.92-22.42l8.73-5.78C299.58,272.29,301.47,284.78,297.39,290.57z"/>
			<path class="st17" d="M289.93,293.82c-0.38,0.34-0.76,0.69-1.15,1.01c-0.14,0.05-0.29,0.08-0.45,0.1
				c-3.43,0.48-10.59-4.36-10.27-10.3c0.02-0.44,0.38-1.33,0.95-2.48c2.93-5.91,11.75-19.06,13.37-18.46c0,0,5.66,0.88,7.2,8.61
				C301.02,279.55,295.82,288.36,289.93,293.82z"/>
			<path class="st13" d="M309.99,319.49c-1.24-0.15-2.87-0.36-4.73-0.65c-4.83-0.75-11.17-2.04-16.17-4.08
				c4.4-0.16,13.82-3.05,14.96-24.62c0.52,4.04,1.29,8.22,2.37,12.5C307.88,308.32,309.24,314.32,309.99,319.49z"/>
			<path class="st13" d="M307.67,248.34c-0.45,0.52-0.8,1-1.07,1.4c-1.76,0.92-3.46,2.03-4.52,2.9c-0.74-0.81-1.42-1.13-2.05-1.2
				l3.88-4.89C305.08,247.26,306.4,247.89,307.67,248.34z"/>
			<path class="st13" d="M288.33,294.92c-1.83,2.55-5.12,6.45-7.82,6.06c-0.1-0.02-0.2-0.03-0.34-0.06
				c-3.34-4.83-3.46-11.16-3.27-14.32l1.15-1.98C277.74,290.56,284.9,295.41,288.33,294.92z"/>
			<path class="st13" d="M316.9,236.07c-0.34,0.79-0.74,1.6-1.18,2.44c-1.17,2.23-1.33,4.46-1.53,6.3c-0.39-0.3-0.79-0.58-1.19-0.82
				c-2.53,1.51-4.23,3.07-5.33,4.35l-0.01,0.01c-3.57-1.28-7.51-4.01-7.75-5.62c-0.35-2.33,2.49-6.33,0-6.81
				c-2.49-0.48-3.83,3.7-3.83,3.7c-2.05,0.21-2.77-3.22-6.13-3.22c-0.47,0-0.94,0.07-1.39,0.18c-1.58,0.39-2.96,1.37-3.85,2.12
				c0,0,3.78-5.31,9.72-4.24c0,0-0.87-1.65-4.86-1.46c8.36-2.73,13.71-1.65,16.29,1.36C307.95,236.83,312.89,239.87,316.9,236.07z"
				/>
		</g>
		<g>
			<path class="st8" d="M333.91,350.87h-29.18c0,0,23.15-6.81,23.15-52.71c0-0.59,0-1.17-0.01-1.75
				c-0.24-30.68-6.79-47.59-14.87-52.42c2.53-1.5,5.89-2.93,10.34-3.92c1.94-0.44,4.08-0.79,6.44-1.04
				c19.98-2.04,35.94,5.79,37.84,14.66C369.5,262.55,357.82,350.87,333.91,350.87z"/>
			<path class="st7" d="M327.87,298.16c0,45.9-23.15,52.71-23.15,52.71h-47.84l1.99-1.42l12.6-8.12l25.28-1.75
				c1.36-5.64,5.06-5.83,10.7-6.42c3.28-0.34,3.6-5.88,2.6-13.2c-0.73-5.27-2.14-11.47-3.63-17.33c-1.08-4.28-1.86-8.46-2.37-12.5
				c-0.61-4.72-0.88-9.23-0.91-13.48c-0.07-9.67,1.1-17.94,2.35-23.92c0.11-0.58,0.24-1.14,0.36-1.67c0-0.02,0.01-0.04,0.01-0.06
				c0.11-0.25,0.61-1.29,1.79-2.66l0.01-0.01c1.1-1.29,2.8-2.85,5.33-4.35c0.4,0.24,0.8,0.52,1.19,0.82
				c7.52,5.73,13.45,22.45,13.68,51.6C327.87,296.99,327.87,297.57,327.87,298.16z"/>
			<path class="st8" d="M318.64,419.03H284.2c-1.18,0-1.69-1.49-0.76-2.22l8.62-6.74c3.82-3,6.06-7.59,6.06-12.44v-46.76h6.61v46.76
				c0,4.85,2.23,9.45,6.07,12.44l8.61,6.74C320.34,417.54,319.82,419.03,318.64,419.03z"/>
			<g class="st13">
				<g>
					<path class="st18" d="M344.91,240.79c0,0,0.25,0.64,0.66,1.93"/>
					<path class="st19" d="M346.73,246.71c1.17,4.39,2.69,11.22,3.9,20.53c3.13,24.15-0.05,58.06-21.05,79.53"/>
					<path class="st18" d="M328.09,348.23c-0.49,0.47-0.99,0.93-1.5,1.39"/>
				</g>
			</g>
			<path class="st16" d="M304.73,350.87v12.77c-2.29,1.19-4.62,2.11-6.61,2.78v-15.55H304.73z"/>
			<path class="st16" d="M313.87,331.03c-1.56,4.86-11.27,3.99-12.45,7.59c-2.5,7.63-3.89,4.27-13.5,5.25
				c-5.5,0.56-9.49,4.08-11.9,7.01h-19.13l1.99-1.42l12.6-8.12l25.28-1.75c1.36-5.64,5.06-5.83,10.7-6.42
				c3.28-0.34,3.6-5.88,2.6-13.2c-0.73-5.27-2.14-11.47-3.63-17.33c-1.08-4.28-1.86-8.46-2.37-12.5c-0.61-4.72-0.88-9.23-0.91-13.48
				C306.89,296.15,315.02,327.43,313.87,331.03z"/>
			<path class="st16" d="M327.87,298.16c0-0.59,0-1.17-0.01-1.75c-0.24-30.68-6.79-47.59-14.87-52.42c2.53-1.5,5.89-2.93,10.34-3.92
				c-1.33,1.92-2.73,4.81-2.07,7.9c1.17,5.46,14.4,26.46,9.34,60.11c-3.65,24.28-2.44,36.91,1.38,42.79h-27.25
				C304.73,350.87,327.87,344.06,327.87,298.16z"/>
		</g>
		<path class="st13" d="M160.93,273.15c-0.02,1.06-0.11,2.07-0.31,2.96h-9.39c-2.76-1.83-7.26-5.46-9.96-10.9
			c2.51,2.73,6.8,6.06,11.17,7.08C156.26,273.18,159.1,272.8,160.93,273.15z"/>
		<g>
			<path class="st4" d="M182.73,235.88c-1.05,3.81-5.85,11.19-10.24,19.1c-4.8,8.63-9.09,17.87-7.41,23.74
				c0.42,1.47,0.61,2.55,0.61,3.33c0.02,2.55-1.92,1.76-3.88,0.31c-2-1.48-4.02-3.64-4.02-3.64l0.15-11.38c0,0-6.45-5.93-1.15-18.89
				c0.34-0.82,0.72-1.67,1.15-2.55c7.29-14.73,18.23-30.19,7.87-34.57C180.11,210.44,184.93,227.91,182.73,235.88z"/>
			<g class="st20">
				<path d="M165.81,211.32c2.68,0.58,5.01,2.38,6.49,4.67c0.4,0.56,0.68,1.19,1,1.79c0.24,0.64,0.54,1.26,0.71,1.93
					c0.19,0.66,0.38,1.32,0.47,2l0.18,1.01l0.06,1.03c-0.06,2.77-0.94,5.41-1.85,7.98c-0.95,2.56-2.05,5.07-3.19,7.55
					c-2.28,4.96-4.73,9.84-6.9,14.84c-1.07,2.5-2.1,5.02-2.86,7.62c-0.39,1.29-0.68,2.61-0.85,3.93c-0.17,1.32-0.15,2.67,0.27,3.86
					l0,0.01c0.07,0.21-0.04,0.45-0.25,0.52c-0.21,0.07-0.45-0.04-0.52-0.25c0,0,0,0,0-0.01c-0.47-1.4-0.44-2.86-0.26-4.23
					c0.2-1.38,0.52-2.73,0.93-4.05c0.81-2.63,1.88-5.16,2.99-7.66c2.24-4.99,4.75-9.84,7.09-14.76c1.17-2.46,2.29-4.95,3.27-7.49
					c0.94-2.54,1.84-5.16,1.93-7.87l-0.05-1.01l-0.16-1c-0.09-0.68-0.26-1.33-0.45-1.99c-0.15-0.66-0.45-1.28-0.68-1.92
					c-0.31-0.61-0.58-1.23-0.97-1.79C170.78,213.75,168.48,211.93,165.81,211.32z"/>
			</g>
			<path class="st17" d="M176.17,258.87c-4.37,11.52,0,20.27-6.56,21.51c-3,0.57-4.33-1.65-4.88-4.24
				c-0.65-3.06-0.22-6.62-0.22-6.62s1.11-2.85,3.45-5.61C169.87,261.65,172.58,259.46,176.17,258.87z"/>
			<path class="st8" d="M160.93,273.15c-0.02,2.68-0.63,4.96-1.87,6.15c-0.12,0.12-0.25,0.23-0.36,0.32
				c-3.1,2.51-5.08-2.09-5.08-2.09s-8.25-4.07-12.34-12.33c-3.13-6.34-3.83-15.17,3.54-26.51c1.08,8.08,5.51,13.58,9.9,18.8
				c0,0.01,0,0.01,0,0.01c0.55,0.65,1.09,1.29,1.63,1.94C159.37,263.09,160.97,268.69,160.93,273.15z"/>
			<g class="st20">
				<path d="M144.81,238.7c-0.71,3.47-0.89,7.05-0.56,10.57c0.37,3.51,1.34,6.99,3.24,9.96c1.83,3.02,4.38,5.5,6.69,8.22
					c1.15,1.36,2.25,2.81,3.03,4.46c0.78,1.65,1.14,3.53,0.99,5.37c-0.02,0.23-0.22,0.39-0.44,0.37c-0.23-0.02-0.39-0.22-0.37-0.44
					c0,0,0-0.01,0-0.01c0.17-1.7-0.12-3.43-0.83-5c-0.7-1.58-1.74-3-2.85-4.37c-2.23-2.72-4.76-5.29-6.57-8.4
					c-1.88-3.06-2.79-6.62-3.09-10.15C143.79,245.75,144.03,242.16,144.81,238.7z"/>
			</g>
			<g class="st13">
				<path d="M176.17,258.87c-1.25,1.45-2.42,2.97-3.53,4.53c-1.11,1.56-2.17,3.16-3.11,4.81c-1.89,3.3-3.5,6.84-4.03,10.55l0,0.01
					c-0.03,0.22-0.24,0.38-0.46,0.35c-0.22-0.03-0.38-0.24-0.35-0.46c0,0,0-0.01,0-0.01c0.7-3.88,2.47-7.39,4.49-10.65
					c1.02-1.64,2.14-3.2,3.3-4.72C173.65,261.76,174.87,260.27,176.17,258.87z"/>
			</g>
			<path class="st8" d="M173.52,279l-2.8,17.19c-0.14,0.72-0.77,1.24-1.51,1.24h-17.44c-0.74,0-1.37-0.52-1.51-1.24l-2.28-13.96
				l-0.52-3.23c-0.17-0.94,0.55-1.81,1.51-1.81h23.04C172.97,277.19,173.69,278.05,173.52,279z"/>
			<path class="st7" d="M176.17,282.5h-31.36l0.83-4.68c0.18-0.98,1.03-1.7,2.03-1.7h25.65c0.99,0,1.85,0.72,2.02,1.7L176.17,282.5z
				"/>
			<path class="st13" d="M164.51,269.52c0,0-0.43,3.54,0.21,6.6h-4.1c0.2-0.89,0.29-1.9,0.31-2.96c0.04-4.46-1.56-10.06-4.59-13.7
				c-0.54-0.65-1.08-1.29-1.63-1.94c0,0,0,0,0-0.01c0.07-2.51,0.64-5.52,2.08-9.06c0.24,4.13,1.25,11.32,5.38,12.08
				c3.13,0.57,7.22-2.54,10.33-5.55c-1.65,2.95-3.22,5.98-4.53,8.93C165.62,266.67,164.51,269.52,164.51,269.52z"/>
			<path class="st13" d="M162.18,297.43h-10.41c-0.74,0-1.37-0.52-1.51-1.24l-2.23-13.68h9c-0.22,1.92-0.49,5.49,0.19,8.27
				C157.74,292.97,159.68,295.8,162.18,297.43z"/>
		</g>
		<g>
			<path class="st6" d="M241.05,155.85h-44.61c-2.2,0-3.99-1.79-3.99-3.99v-33.17c0-2.2,1.79-3.99,3.99-3.99h44.61
				c2.2,0,3.99,1.79,3.99,3.99v33.17C245.04,154.07,243.26,155.85,241.05,155.85z"/>
			<g>
				<path class="st5" d="M204.7,129.26v4.43c0,0.35,0.29,0.64,0.64,0.64h2.45c0.35,0,0.64-0.29,0.64-0.64v-4.43
					c0-0.35,0.29-0.64,0.64-0.64h0.24c0.35,0,0.64,0.29,0.64,0.64v12.04c0,0.35-0.29,0.64-0.64,0.64h-0.24
					c-0.35,0-0.64-0.29-0.64-0.64v-4.94c0-0.35-0.29-0.64-0.64-0.64h-2.45c-0.35,0-0.64,0.29-0.64,0.64v4.94
					c0,0.35-0.29,0.64-0.64,0.64h-0.24c-0.35,0-0.64-0.29-0.64-0.64v-12.04c0-0.35,0.29-0.64,0.64-0.64h0.24
					C204.41,128.61,204.7,128.9,204.7,129.26z"/>
				<path class="st5" d="M213.25,129.98h-1.15c-0.35,0-0.64-0.29-0.64-0.64v-0.08c0-0.35,0.29-0.64,0.64-0.64h5.1
					c0.35,0,0.64,0.29,0.64,0.64v0.08c0,0.35-0.29,0.64-0.64,0.64h-1.15c-0.35,0-0.64,0.29-0.64,0.64v10.68
					c0,0.35-0.29,0.64-0.64,0.64h-0.24c-0.35,0-0.64-0.29-0.64-0.64v-10.68C213.89,130.27,213.6,129.98,213.25,129.98z"/>
				<path class="st5" d="M227.31,136.21c-0.1-1.76-0.2-3.72-0.14-5.22h-0.08c-0.3,1.48-0.65,3.06-1.07,4.63l-1.64,6.25h-0.97
					l-1.56-5.99c-0.44-1.7-0.83-3.34-1.09-4.88h-0.06c0,1.56-0.08,3.42-0.16,5.32l-0.23,5.02c-0.02,0.34-0.3,0.61-0.64,0.61h-0.07
					c-0.37,0-0.66-0.31-0.64-0.68l0.71-12.04c0.02-0.34,0.3-0.6,0.64-0.6h0.54c0.29,0,0.55,0.2,0.62,0.48l1.44,5.61
					c0.45,1.76,0.79,3.06,1.07,4.59h0.06c0.26-1.52,0.55-2.79,0.99-4.59l1.38-5.6c0.07-0.29,0.33-0.49,0.62-0.49h0.59
					c0.34,0,0.62,0.27,0.64,0.61l0.7,12.04c0.02,0.37-0.27,0.68-0.64,0.68h-0.13c-0.34,0-0.63-0.27-0.64-0.61L227.31,136.21z"/>
				<path class="st5" d="M231.73,128.61h0.24c0.35,0,0.64,0.29,0.64,0.64v10.76c0,0.35,0.29,0.64,0.64,0.64h2.47
					c0.35,0,0.64,0.29,0.64,0.64l0,0c0,0.35-0.29,0.64-0.64,0.64h-3.99c-0.35,0-0.64-0.29-0.64-0.64v-12.04
					C231.08,128.9,231.37,128.61,231.73,128.61z"/>
			</g>
		</g>
		<g>
			<g>
				<g>
					<path class="st6" d="M261.39,118.23c1.67,0,2.06-1.12,2.06-2.12c0-0.88-0.09-1.73-0.18-2.58c-0.09-0.91-0.18-1.73-0.18-2.67
						c0-2.73,1.67-3.88,3.82-3.88h0.36v1.58h-0.46c-1.27,0-1.79,0.91-1.79,2.28c0,0.82,0.09,1.58,0.18,2.31
						c0.06,0.79,0.15,1.52,0.15,2.25c0.03,2.37-0.79,3.19-2.09,3.55v0.06c1.3,0.39,2.12,1.21,2.09,3.61c0,0.76-0.09,1.52-0.15,2.28
						c-0.09,0.76-0.18,1.52-0.18,2.34c0,1.37,0.46,2.31,1.82,2.31h0.42v1.58h-0.39c-2,0-3.79-1-3.79-3.88c0-0.91,0.09-1.82,0.18-2.7
						c0.09-0.88,0.18-1.76,0.18-2.61c0-0.97-0.39-2.15-2.06-2.15V118.23z"/>
					<path class="st6" d="M292.33,119.74c-1.67,0-2.06,1.18-2.06,2.15c0,0.85,0.09,1.73,0.18,2.61c0.09,0.88,0.18,1.79,0.18,2.7
						c0,2.88-1.79,3.88-3.79,3.88h-0.39v-1.58h0.43c1.37-0.15,1.82-0.94,1.82-2.31c0-0.82-0.09-1.58-0.15-2.34
						c-0.09-0.76-0.18-1.52-0.18-2.28c-0.03-2.4,0.79-3.22,2.09-3.61v-0.06c-1.31-0.36-2.12-1.18-2.09-3.55
						c0-0.73,0.09-1.46,0.18-2.25c0.06-0.73,0.15-1.49,0.15-2.31c0-1.37-0.52-2.12-1.79-2.28h-0.46v-1.58h0.36
						c2.15,0,3.82,1.15,3.82,3.88c0,0.94-0.09,1.76-0.18,2.67c-0.09,0.85-0.18,1.7-0.18,2.58c0,1,0.39,2.12,2.06,2.12V119.74z"/>
				</g>
			</g>
			<polygon class="st2" points="281.91,121.95 281.91,116.11 276.86,113.19 271.8,116.11 271.8,121.95 276.86,124.87 			"/>
		</g>
		<g>
			<path class="st2" d="M319.95,151.04c-4.75-2.37-10.47-1.43-14.22,2.32c-4.64,4.64-4.79,12.07-0.49,16.91l-1.85-0.22
				c-0.22-0.03-0.43,0.13-0.45,0.36c-0.03,0.22,0.13,0.43,0.36,0.45l2.82,0.34c0.11,0.01,0.22-0.02,0.3-0.08
				c0.08-0.06,0.14-0.16,0.15-0.27l0.33-2.73c0.03-0.22-0.13-0.43-0.36-0.45c-0.22-0.03-0.43,0.13-0.45,0.36l-0.21,1.74
				c-4.04-4.52-3.9-11.47,0.44-15.81c3.51-3.51,8.84-4.38,13.28-2.17c0.2,0.1,0.45,0.02,0.55-0.18
				C320.23,151.38,320.15,151.14,319.95,151.04z"/>
			<path class="st2" d="M309.32,173.68c4.75,2.37,10.47,1.43,14.22-2.32c4.64-4.64,4.79-12.07,0.49-16.91l1.85,0.22
				c0.22,0.03,0.43-0.13,0.45-0.36c0.03-0.22-0.13-0.43-0.36-0.45l-2.82-0.34c-0.11-0.01-0.22,0.02-0.3,0.08
				c-0.08,0.06-0.14,0.16-0.15,0.27l-0.32,2.73c-0.03,0.22,0.13,0.43,0.36,0.45c0.22,0.03,0.43-0.13,0.45-0.36l0.21-1.74
				c4.04,4.52,3.9,11.47-0.44,15.81c-3.51,3.51-8.84,4.38-13.28,2.17c-0.2-0.1-0.45-0.02-0.55,0.18
				C309.04,173.34,309.12,173.58,309.32,173.68z"/>
		</g>
		<g>
			<path class="st2" d="M418.78,196.66h-74.07c-1.35,0-2.44-1.09-2.44-2.44l0,0c0-1.35,1.09-2.44,2.44-2.44h74.07
				c1.35,0,2.44,1.09,2.44,2.44l0,0C421.23,195.57,420.13,196.66,418.78,196.66z"/>
			<path class="st4" d="M392.33,207.29h-47.62c-1.35,0-2.44-1.09-2.44-2.44l0,0c0-1.35,1.09-2.44,2.44-2.44h47.62
				c1.35,0,2.44,1.09,2.44,2.44l0,0C394.78,206.19,393.68,207.29,392.33,207.29z"/>
			<path class="st4" d="M392.33,218.7h-47.62c-1.35,0-2.44-1.09-2.44-2.44l0,0c0-1.35,1.09-2.44,2.44-2.44h47.62
				c1.35,0,2.44,1.09,2.44,2.44l0,0C394.78,217.6,393.68,218.7,392.33,218.7z"/>
		</g>
		<g>
			<path class="st4" d="M156.14,156.04h-38.48c-1.35,0-2.44-1.09-2.44-2.44l0,0c0-1.35,1.09-2.44,2.44-2.44h38.48
				c1.35,0,2.44,1.09,2.44,2.44l0,0C158.58,154.95,157.49,156.04,156.14,156.04z"/>
			<path class="st2" d="M141.61,166.67h-23.95c-1.35,0-2.44-1.09-2.44-2.44l0,0c0-1.35,1.09-2.44,2.44-2.44h23.95
				c1.35,0,2.44,1.09,2.44,2.44l0,0C144.06,165.57,142.96,166.67,141.61,166.67z"/>
			<path class="st2" d="M141.61,178.08h-23.95c-1.35,0-2.44-1.09-2.44-2.44l0,0c0-1.35,1.09-2.44,2.44-2.44h23.95
				c1.35,0,2.44,1.09,2.44,2.44l0,0C144.06,176.98,142.96,178.08,141.61,178.08z"/>
		</g>
		<g>
			<path class="st17" d="M385.41,333.26c-2.4,6.96-5.26,13.03-8.26,18.51c-10.35,18.92-22.38,30.95-22.83,48.58
				c0,0-3.73-16.62-0.74-35.55c1.68-10.63,5.48-21.99,13.24-31.55c21.62-26.58,18.42-50.76,18.42-50.76S396.09,302.33,385.41,333.26
				z"/>
			<g class="st13">
				<path d="M359.94,379.67c-0.32-2.21-0.23-4.35-0.03-6.51c0.21-2.15,0.6-4.28,1.15-6.36c1.07-4.17,2.66-8.19,4.6-12.02
					c0.93-1.94,2.04-3.77,3.13-5.62l3.48-5.37c2.22-3.61,4.09-7.45,5.66-11.4c1.59-3.95,2.92-8,4.05-12.11
					c1.13-4.11,2.06-8.27,2.79-12.47c0.73-4.2,1.27-8.43,1.53-12.69c0.13-2.13,0.19-4.26,0.09-6.39c-0.05-1.06-0.12-2.13-0.29-3.18
					c-0.18-1.05-0.37-2.11-0.87-3.06c0.51,0.94,0.73,2.01,0.92,3.06c0.19,1.05,0.28,2.12,0.35,3.18c0.13,2.13,0.1,4.27,0.01,6.41
					c-0.19,4.27-0.69,8.52-1.38,12.74c-0.69,4.22-1.57,8.41-2.66,12.54c-1.08,4.14-2.38,8.22-3.94,12.21
					c-1.54,3.99-3.39,7.88-5.6,11.57l-3.45,5.39c-1.07,1.83-2.17,3.65-3.08,5.57c-1.9,3.79-3.46,7.76-4.5,11.86
					c-0.53,2.05-0.91,4.13-1.14,6.23c-0.22,2.08-0.31,4.24-0.03,6.27l0.01,0.04c0.03,0.22-0.13,0.43-0.35,0.46
					C360.18,380.05,359.98,379.89,359.94,379.67z"/>
			</g>
			<path class="st13" d="M377.15,351.77c-10.35,18.92-22.38,30.95-22.83,48.58c0,0-3.73-16.62-0.74-35.55
				C360.3,362.07,369.74,357.6,377.15,351.77z"/>
			<path class="st4" d="M360.33,419.03c0,0-7.56-12.93,10.33-28.88c17.89-15.95,31.9-37.05,29.17-54.12
				c-17.12,19.88-62.63,48.08-49.79,82.99L360.33,419.03z"/>
			<g class="st13">
				<path d="M399.83,336.04c-1.71,3.77-4,7.24-6.46,10.56c-2.49,3.3-5.23,6.41-8.15,9.35c-2.89,2.96-6.08,5.62-9.24,8.27
					c-3.14,2.66-5.99,5.67-8.53,8.91c-5.08,6.48-9.05,13.86-11.44,21.73c-1.17,3.94-1.97,8-2.08,12.1
					c-0.12,4.08,0.4,8.23,2.04,11.95c0.09,0.21,0,0.45-0.21,0.54s-0.45,0-0.54-0.21l0,0c-1.66-3.89-2.16-8.15-2-12.3
					c0.15-4.17,1-8.28,2.21-12.25c2.48-7.93,6.54-15.33,11.71-21.81c2.58-3.24,5.47-6.24,8.66-8.89c3.19-2.63,6.39-5.24,9.3-8.18
					c2.93-2.9,5.69-5.99,8.21-9.26C395.78,343.24,398.1,339.79,399.83,336.04z"/>
			</g>
		</g>
		<g>
			<path class="st17" d="M103.53,325.38c0,0-9.34-8.51-14.29-29.78c28.59,24.24,35.59,45.83,35.59,45.83L103.53,325.38z"/>
			<g class="st13">
				<path d="M89.23,295.6c3.98,5.69,7.87,11.44,11.65,17.27c1.89,2.91,3.74,5.85,5.54,8.83c1.79,2.98,3.54,5.99,4.99,9.19
					c0.09,0.21,0,0.45-0.2,0.54s-0.45,0-0.54-0.2c0,0,0,0,0-0.01l-0.01-0.01c-1.36-3.15-3.05-6.19-4.77-9.2
					c-1.73-3-3.53-5.97-5.36-8.92C96.87,307.2,93.1,301.37,89.23,295.6z"/>
			</g>
			<path class="st4" d="M124.24,337.35c-5.14-4.63-12.75-9.22-20-14.17c-9.63-6.57-18.61-13.79-20.27-22.61
				c-3.78,31.81,33.22,46.14,33.22,46.14l0.07,0.11l13.44,19.6C130.71,366.42,136.2,348.14,124.24,337.35z"/>
			<g class="st13">
				<path d="M83.98,300.57c0.02,3.55,1.05,7.02,2.54,10.2c1.56,3.17,3.67,6.05,6.18,8.52c2.51,2.48,5.41,4.52,8.38,6.44
					c2.96,1.93,5.97,3.79,8.9,5.79c5.84,3.97,11.43,8.59,15.34,14.6c3.97,5.96,5.8,13.18,5.8,20.3c0,0.23-0.18,0.41-0.41,0.41
					c-0.23,0-0.41-0.18-0.41-0.41l0-0.01c0.06-6.99-1.66-14.07-5.5-19.97c-3.79-5.94-9.28-10.59-15.06-14.59
					c-2.9-2.02-5.89-3.91-8.83-5.87c-2.95-1.95-5.85-4.03-8.35-6.55c-2.51-2.51-4.6-5.43-6.13-8.62
					C84.96,307.6,83.96,304.12,83.98,300.57z"/>
			</g>
		</g>
		<path class="st0" d="M387.68,433.23H139.07c-3.92,0-7.1-3.18-7.1-7.1l0,0c0-3.92,3.18-7.1,7.1-7.1h248.61c3.92,0,7.1,3.18,7.1,7.1
			l0,0C394.78,430.05,391.6,433.23,387.68,433.23z"/>
	</g>
</g>
<g id="DESIGNED_BY_FREEPIK">
</g>
</svg>
